<?xml version="1.0" encoding="UTF-8"?>
<!DOCTYPE svg PUBLIC "-//W3C//DTD SVG 1.1//EN" "http://www.w3.org/Graphics/SVG/1.1/DTD/svg11.dtd">
<svg xmlns="http://www.w3.org/2000/svg" version="1.1" width="40px" height="40px" style="shape-rendering:geometricPrecision; text-rendering:geometricPrecision; image-rendering:optimizeQuality; fill-rule:evenodd; clip-rule:evenodd" xmlns:xlink="http://www.w3.org/1999/xlink">
<g><path style="opacity:0.991" fill="#f4b738" d="M 14.5,-0.5 C 17.8333,-0.5 21.1667,-0.5 24.5,-0.5C 31.8333,2.16667 36.8333,7.16667 39.5,14.5C 39.5,17.8333 39.5,21.1667 39.5,24.5C 38.4488,26.9287 37.1155,29.262 35.5,31.5C 34.5,31.5 33.5,31.5 32.5,31.5C 32.5,30.8333 32.5,30.1667 32.5,29.5C 32.0825,28.7784 31.4158,28.2784 30.5,28C 31.3081,27.6924 31.9747,27.1924 32.5,26.5C 31.2713,25.7189 29.938,25.2189 28.5,25C 30.437,24.8784 31.7703,24.045 32.5,22.5C 32.5,21.8333 32.5,21.1667 32.5,20.5C 32.5,19.1667 32.5,17.8333 32.5,16.5C 34.3102,17.9551 35.9769,17.7884 37.5,16C 32.1667,12.3333 26.8333,8.66667 21.5,5C 18.0842,4.87304 15.0842,6.03971 12.5,8.5C 12.5,7.83333 12.5,7.16667 12.5,6.5C 13.0431,6.44001 13.3764,6.10667 13.5,5.5C 11.5,4.16667 9.5,4.16667 7.5,5.5C 7.62358,6.10667 7.95691,6.44001 8.5,6.5C 8.5,7.83333 8.5,9.16667 8.5,10.5C 6.3533,12.4695 4.01997,14.3029 1.5,16C 3.02314,17.7884 4.6898,17.9551 6.5,16.5C 6.5,17.8333 6.5,19.1667 6.5,20.5C 6.5,21.1667 6.5,21.8333 6.5,22.5C 7.22967,24.045 8.563,24.8784 10.5,25C 9.06199,25.2189 7.72865,25.7189 6.5,26.5C 7.02527,27.1924 7.69194,27.6924 8.5,28C 7.5842,28.2784 6.91753,28.7784 6.5,29.5C 6.5,30.1667 6.5,30.8333 6.5,31.5C 5.5,31.5 4.5,31.5 3.5,31.5C 1.8845,29.262 0.551166,26.9287 -0.5,24.5C -0.5,21.1667 -0.5,17.8333 -0.5,14.5C 2.16667,7.16667 7.16667,2.16667 14.5,-0.5 Z"/></g>
<g><path style="opacity:1" fill="#a55c3a" d="M 12.5,6.5 C 11.1667,6.5 9.83333,6.5 8.5,6.5C 7.95691,6.44001 7.62358,6.10667 7.5,5.5C 9.5,4.16667 11.5,4.16667 13.5,5.5C 13.3764,6.10667 13.0431,6.44001 12.5,6.5 Z"/></g>
<g><path style="opacity:1" fill="#d3211d" d="M 32.5,16.5 C 28.6946,13.0914 24.3612,10.4247 19.5,8.5C 14.6388,10.4247 10.3054,13.0914 6.5,16.5C 4.6898,17.9551 3.02314,17.7884 1.5,16C 4.01997,14.3029 6.3533,12.4695 8.5,10.5C 10.0618,10.2671 11.3951,9.60048 12.5,8.5C 15.0842,6.03971 18.0842,4.87304 21.5,5C 26.8333,8.66667 32.1667,12.3333 37.5,16C 35.9769,17.7884 34.3102,17.9551 32.5,16.5 Z"/></g>
<g><path style="opacity:1" fill="#fefffe" d="M 8.5,6.5 C 9.83333,6.5 11.1667,6.5 12.5,6.5C 12.5,7.16667 12.5,7.83333 12.5,8.5C 11.3951,9.60048 10.0618,10.2671 8.5,10.5C 8.5,9.16667 8.5,7.83333 8.5,6.5 Z"/></g>
<g><path style="opacity:1" fill="#f8f7f6" d="M 32.5,16.5 C 32.5,17.8333 32.5,19.1667 32.5,20.5C 29.8333,21.1667 29.8333,21.8333 32.5,22.5C 31.7703,24.045 30.437,24.8784 28.5,25C 29.938,25.2189 31.2713,25.7189 32.5,26.5C 31.9747,27.1924 31.3081,27.6924 30.5,28C 31.4158,28.2784 32.0825,28.7784 32.5,29.5C 30.5168,29.1568 29.1834,29.8235 28.5,31.5C 22.5,31.5 16.5,31.5 10.5,31.5C 9.81658,29.8235 8.48324,29.1568 6.5,29.5C 6.91753,28.7784 7.5842,28.2784 8.5,28C 7.69194,27.6924 7.02527,27.1924 6.5,26.5C 7.72865,25.7189 9.06199,25.2189 10.5,25C 8.563,24.8784 7.22967,24.045 6.5,22.5C 9.16667,21.8333 9.16667,21.1667 6.5,20.5C 6.5,19.1667 6.5,17.8333 6.5,16.5C 10.3054,13.0914 14.6388,10.4247 19.5,8.5C 24.3612,10.4247 28.6946,13.0914 32.5,16.5 Z"/></g>
<g><path style="opacity:1" fill="#424468" d="M 15.5,15.5 C 17.3588,15.4609 18.6921,16.2942 19.5,18C 16.691,20.0564 15.3577,19.2231 15.5,15.5 Z"/></g>
<g><path style="opacity:1" fill="#3b3e65" d="M 20.5,15.5 C 21.5,15.5 22.5,15.5 23.5,15.5C 23.7778,17.3464 23.1112,18.6798 21.5,19.5C 20.5713,18.3112 20.238,16.9778 20.5,15.5 Z"/></g>
<g><path style="opacity:1" fill="#3a3d61" d="M 15.5,22.5 C 12.7252,22.1662 12.0585,20.8329 13.5,18.5C 15.1112,19.3202 15.7778,20.6536 15.5,22.5 Z"/></g>
<g><path style="opacity:1" fill="#3c4068" d="M 23.5,22.5 C 23.2222,20.6536 23.8888,19.3202 25.5,18.5C 26.9415,20.8329 26.2748,22.1662 23.5,22.5 Z"/></g>
<g><path style="opacity:1" fill="#3b3f65" d="M 23.5,22.5 C 25.1106,24.8334 24.6106,26.5001 22,27.5C 19.8824,26.8041 17.7158,26.6374 15.5,27C 14.2721,25.5098 14.2721,24.0098 15.5,22.5C 18.1667,19.8333 20.8333,19.8333 23.5,22.5 Z"/></g>
<g><path style="opacity:1" fill="#ab6647" d="M 6.5,20.5 C 9.16667,21.1667 9.16667,21.8333 6.5,22.5C 6.5,21.8333 6.5,21.1667 6.5,20.5 Z"/></g>
<g><path style="opacity:1" fill="#ab6647" d="M 32.5,20.5 C 32.5,21.1667 32.5,21.8333 32.5,22.5C 29.8333,21.8333 29.8333,21.1667 32.5,20.5 Z"/></g>
<g><path style="opacity:1" fill="#a65c3b" d="M 6.5,29.5 C 8.48324,29.1568 9.81658,29.8235 10.5,31.5C 9.16667,31.5 7.83333,31.5 6.5,31.5C 6.5,30.8333 6.5,30.1667 6.5,29.5 Z"/></g>
<g><path style="opacity:1" fill="#a65c3b" d="M 32.5,29.5 C 32.5,30.1667 32.5,30.8333 32.5,31.5C 31.1667,31.5 29.8333,31.5 28.5,31.5C 29.1834,29.8235 30.5168,29.1568 32.5,29.5 Z"/></g>
<g><path style="opacity:1" fill="#1cb562" d="M 3.5,31.5 C 4.5,31.5 5.5,31.5 6.5,31.5C 7.83333,31.5 9.16667,31.5 10.5,31.5C 16.5,31.5 22.5,31.5 28.5,31.5C 29.8333,31.5 31.1667,31.5 32.5,31.5C 33.5,31.5 34.5,31.5 35.5,31.5C 32.3717,34.9696 28.7051,37.6362 24.5,39.5C 21.1667,39.5 17.8333,39.5 14.5,39.5C 10.2949,37.6362 6.62826,34.9696 3.5,31.5 Z"/></g>
</svg>
