<?xml version="1.0" encoding="UTF-8"?>
<!DOCTYPE svg PUBLIC "-//W3C//DTD SVG 1.1//EN" "http://www.w3.org/Graphics/SVG/1.1/DTD/svg11.dtd">
<svg xmlns="http://www.w3.org/2000/svg" version="1.1" width="304px" height="136px" style="shape-rendering:geometricPrecision; text-rendering:geometricPrecision; image-rendering:optimizeQuality; fill-rule:evenodd; clip-rule:evenodd" xmlns:xlink="http://www.w3.org/1999/xlink">
<g><path style="opacity:1" fill="#f2f2f7" d="M 116.5,17.5 C 115.632,19.4021 114.632,21.2355 113.5,23C 113.743,23.9021 114.077,24.7354 114.5,25.5C 113.596,26.209 113.263,27.209 113.5,28.5C 112.596,27.791 112.263,26.791 112.5,25.5C 111.07,25.5792 109.736,25.2458 108.5,24.5C 107.904,25.7161 107.737,27.0494 108,28.5C 107.329,29.2524 106.496,29.5858 105.5,29.5C 103.72,28.0101 103.054,26.0101 103.5,23.5C 104.5,23.5 105.5,23.5 106.5,23.5C 106.254,20.5299 104.588,19.1966 101.5,19.5C 101.574,17.5891 102.574,16.4224 104.5,16C 108.817,15.0188 112.817,15.5188 116.5,17.5 Z M 104.5,27.5 C 105.077,26.2267 105.743,26.2267 106.5,27.5C 106.03,28.463 105.363,28.463 104.5,27.5 Z"/></g>
<g><path style="opacity:0.999" fill="#e9eaf0" d="M 116.5,17.5 C 117.5,17.5 118.5,17.5 119.5,17.5C 119.5,19.1667 119.5,20.8333 119.5,22.5C 120.833,22.5 122.167,22.5 123.5,22.5C 123.5,26.1667 123.5,29.8333 123.5,33.5C 122.167,33.5 120.833,33.5 119.5,33.5C 119.5,35.5 119.5,37.5 119.5,39.5C 117.901,39.2322 116.568,39.5655 115.5,40.5C 114.624,40.6309 113.957,40.2975 113.5,39.5C 114.313,38.1861 115.313,37.0195 116.5,36C 114.677,35.0027 113.01,33.8361 111.5,32.5C 110.817,30.8235 109.483,30.1568 107.5,30.5C 102.19,36.1811 101.523,35.8478 105.5,29.5C 106.496,29.5858 107.329,29.2524 108,28.5C 107.737,27.0494 107.904,25.7161 108.5,24.5C 109.736,25.2458 111.07,25.5792 112.5,25.5C 112.263,26.791 112.596,27.791 113.5,28.5C 114.404,27.791 114.737,26.791 114.5,25.5C 114.077,24.7354 113.743,23.9021 113.5,23C 114.632,21.2355 115.632,19.4021 116.5,17.5 Z M 107.5,30.5 C 109.483,30.1568 110.817,30.8235 111.5,32.5C 109.517,32.8432 108.183,32.1765 107.5,30.5 Z"/></g>
<g><path style="opacity:0.999" fill="#ecedf3" d="M 101.5,19.5 C 104.588,19.1966 106.254,20.5299 106.5,23.5C 105.5,23.5 104.5,23.5 103.5,23.5C 103.054,26.0101 103.72,28.0101 105.5,29.5C 101.523,35.8478 102.19,36.1811 107.5,30.5C 108.183,32.1765 109.517,32.8432 111.5,32.5C 113.01,33.8361 114.677,35.0027 116.5,36C 115.313,37.0195 114.313,38.1861 113.5,39.5C 113.957,40.2975 114.624,40.6309 115.5,40.5C 112.024,41.6433 108.358,41.8099 104.5,41C 101.296,38.1312 98.4626,34.9646 96,31.5C 96.0154,28.4302 96.6821,25.4302 98,22.5C 98.7202,20.9443 99.8868,19.9443 101.5,19.5 Z"/></g>
<g><path style="opacity:0.103" fill="#f7f9fa" d="M 208.5,34.5 C 209.209,33.596 210.209,33.2627 211.5,33.5C 211.5,38.5 211.5,43.5 211.5,48.5C 210.024,43.934 209.024,39.2674 208.5,34.5 Z"/></g>
<g><path style="opacity:1" fill="#b9dded" d="M 191.5,31.5 C 188.221,32.0306 186.887,34.0306 187.5,37.5C 184.756,39.2009 181.756,40.5343 178.5,41.5C 178.079,39.0901 176.746,37.2568 174.5,36C 174.957,35.586 175.291,35.086 175.5,34.5C 172.682,33.1205 170.015,33.2871 167.5,35C 168.167,35.3333 168.833,35.6667 169.5,36C 168.263,36.2321 167.263,36.7321 166.5,37.5C 165.951,40.2498 164.285,41.9165 161.5,42.5C 163.455,33.5598 169.122,28.8931 178.5,28.5C 183.042,29.0978 187.376,30.0978 191.5,31.5 Z"/></g>
<g><path style="opacity:1" fill="#96bbcd" d="M 191.5,31.5 C 191.328,32.4916 191.662,33.1583 192.5,33.5C 193.077,36.5497 191.91,38.5497 189,39.5C 187.845,42.7913 186.512,45.7913 185,48.5C 187.635,50.9261 190.801,52.2594 194.5,52.5C 197.234,55.6572 200.568,56.3238 204.5,54.5C 206.117,53.962 207.784,53.6287 209.5,53.5C 209.5,54.5 209.5,55.5 209.5,56.5C 208.209,56.2627 207.209,56.596 206.5,57.5C 202.672,56.502 199.006,56.502 195.5,57.5C 195.5,58.1667 195.5,58.8333 195.5,59.5C 194.596,58.791 194.263,57.791 194.5,56.5C 191.941,56.1984 189.607,56.5318 187.5,57.5C 187.167,57.5 186.833,57.5 186.5,57.5C 184.5,57.5 182.5,57.5 180.5,57.5C 180.5,56.8333 180.5,56.1667 180.5,55.5C 177.427,50.9498 175.094,45.9498 173.5,40.5C 177.301,43.0972 179.301,46.7639 179.5,51.5C 180.833,52.1667 181.833,53.1667 182.5,54.5C 184.647,55.8353 186.647,55.6686 188.5,54C 186.316,51.9835 184.316,49.8169 182.5,47.5C 185.134,44.5654 186.801,41.232 187.5,37.5C 186.887,34.0306 188.221,32.0306 191.5,31.5 Z"/></g>
<g><path style="opacity:1" fill="#acd6e9" d="M 187.5,37.5 C 186.801,41.232 185.134,44.5654 182.5,47.5C 184.316,49.8169 186.316,51.9835 188.5,54C 186.647,55.6686 184.647,55.8353 182.5,54.5C 181.833,53.1667 180.833,52.1667 179.5,51.5C 179.301,46.7639 177.301,43.0972 173.5,40.5C 171.815,38.1824 169.481,37.1824 166.5,37.5C 167.263,36.7321 168.263,36.2321 169.5,36C 168.833,35.6667 168.167,35.3333 167.5,35C 170.015,33.2871 172.682,33.1205 175.5,34.5C 175.291,35.086 174.957,35.586 174.5,36C 176.746,37.2568 178.079,39.0901 178.5,41.5C 181.756,40.5343 184.756,39.2009 187.5,37.5 Z"/></g>
<g><path style="opacity:1" fill="#b3dbee" d="M 192.5,33.5 C 197.862,33.4724 203.195,33.8058 208.5,34.5C 208.738,38.0993 207.738,38.4327 205.5,35.5C 205.167,35.8333 204.833,36.1667 204.5,36.5C 205.48,37.9814 206.647,39.3147 208,40.5C 208.301,43.9742 209.134,47.3075 210.5,50.5C 210.062,51.5063 209.396,51.5063 208.5,50.5C 206.979,47.3454 206.313,44.012 206.5,40.5C 204.533,40.2606 202.699,40.5939 201,41.5C 195.902,37.043 193.402,38.3763 193.5,45.5C 192.5,45.5 191.5,45.5 190.5,45.5C 190.5,47.1667 190.5,48.8333 190.5,50.5C 193.695,51.0393 196.195,50.0393 198,47.5C 198.483,48.448 198.649,49.448 198.5,50.5C 200.5,50.8333 202.5,51.1667 204.5,51.5C 204.5,52.5 204.5,53.5 204.5,54.5C 200.568,56.3238 197.234,55.6572 194.5,52.5C 190.801,52.2594 187.635,50.9261 185,48.5C 186.512,45.7913 187.845,42.7913 189,39.5C 191.91,38.5497 193.077,36.5497 192.5,33.5 Z"/></g>
<g><path style="opacity:1" fill="#add5e6" d="M 166.5,37.5 C 169.481,37.1824 171.815,38.1824 173.5,40.5C 175.094,45.9498 177.427,50.9498 180.5,55.5C 177.5,55.5 174.5,55.5 171.5,55.5C 168.482,55.6646 165.482,55.498 162.5,55C 163.581,53.2894 163.248,51.7894 161.5,50.5C 160.343,47.6926 160.343,45.0259 161.5,42.5C 164.285,41.9165 165.951,40.2498 166.5,37.5 Z"/></g>
<g><path style="opacity:1" fill="#9cc3d7" d="M 208.5,34.5 C 209.024,39.2674 210.024,43.934 211.5,48.5C 211.5,49.8333 211.5,51.1667 211.5,52.5C 210.833,52.8333 210.167,53.1667 209.5,53.5C 207.784,53.6287 206.117,53.962 204.5,54.5C 204.5,53.5 204.5,52.5 204.5,51.5C 202.5,51.1667 200.5,50.8333 198.5,50.5C 198.649,49.448 198.483,48.448 198,47.5C 196.195,50.0393 193.695,51.0393 190.5,50.5C 190.5,48.8333 190.5,47.1667 190.5,45.5C 191.5,45.5 192.5,45.5 193.5,45.5C 193.402,38.3763 195.902,37.043 201,41.5C 202.699,40.5939 204.533,40.2606 206.5,40.5C 206.313,44.012 206.979,47.3454 208.5,50.5C 209.396,51.5063 210.062,51.5063 210.5,50.5C 209.134,47.3075 208.301,43.9742 208,40.5C 206.647,39.3147 205.48,37.9814 204.5,36.5C 204.833,36.1667 205.167,35.8333 205.5,35.5C 207.738,38.4327 208.738,38.0993 208.5,34.5 Z"/></g>
<g><path style="opacity:1" fill="#c7dfea" d="M 161.5,50.5 C 163.248,51.7894 163.581,53.2894 162.5,55C 165.482,55.498 168.482,55.6646 171.5,55.5C 172.373,59.7685 172.706,64.1018 172.5,68.5C 172.147,71.7918 171.813,75.1252 171.5,78.5C 168.055,79.9842 164.722,79.8175 161.5,78C 163.577,77.8078 165.577,77.3078 167.5,76.5C 166.593,73.5788 166.26,70.5788 166.5,67.5C 167.314,69.631 167.814,71.9644 168,74.5C 168.667,73.8333 169.333,73.1667 170,72.5C 171.162,67.8747 171.496,63.208 171,58.5C 167.082,55.955 163.249,55.955 159.5,58.5C 152.781,56.5953 145.781,55.9287 138.5,56.5C 138.167,56.5 137.833,56.5 137.5,56.5C 142.316,55.6739 147.316,55.1739 152.5,55C 154.714,51.8932 157.714,50.3932 161.5,50.5 Z"/></g>
<g><path style="opacity:0.91" fill="#a8babd" d="M 235.5,55.5 C 233.621,56.3414 231.621,56.6747 229.5,56.5C 230.997,55.6942 232.664,55.0276 234.5,54.5C 235.107,54.6236 235.44,54.9569 235.5,55.5 Z"/></g>
<g><path style="opacity:0.13" fill="#f6f8f9" d="M 195.5,57.5 C 199.006,56.502 202.672,56.502 206.5,57.5C 206.5,57.8333 206.5,58.1667 206.5,58.5C 206.5,60.1667 206.5,61.8333 206.5,63.5C 205.549,62.0813 205.216,60.4147 205.5,58.5C 202.193,57.9492 198.86,57.6159 195.5,57.5 Z"/></g>
<g><path style="opacity:0.902" fill="#97a1b0" d="M 229.5,56.5 C 228.738,58.2624 227.404,59.2624 225.5,59.5C 226.262,57.7376 227.596,56.7376 229.5,56.5 Z"/></g>
<g><path style="opacity:1" fill="#2f4b5f" d="M 51.5,70.5 C 49.5,70.5 47.5,70.5 45.5,70.5C 45.8274,80.6806 45.494,90.6806 44.5,100.5C 44.5,85.8333 44.5,71.1667 44.5,56.5C 46.6074,55.5318 48.9407,55.1984 51.5,55.5C 51.5,60.5 51.5,65.5 51.5,70.5 Z"/></g>
<g><path style="opacity:1" fill="#204155" d="M 138.5,56.5 C 145.781,55.9287 152.781,56.5953 159.5,58.5C 160.183,60.1765 161.517,60.8432 163.5,60.5C 163.198,63.0593 163.532,65.3926 164.5,67.5C 162.282,69.8441 159.615,70.1774 156.5,68.5C 153.761,64.9906 150.094,63.6572 145.5,64.5C 144.549,65.9187 144.216,67.5853 144.5,69.5C 142.5,69.5 140.5,69.5 138.5,69.5C 138.5,65.1667 138.5,60.8333 138.5,56.5 Z"/></g>
<g><path style="opacity:1" fill="#7eb987" d="M 99.5,63.5 C 90.9346,61.1814 82.2679,60.8481 73.5,62.5C 79.5511,58.4307 86.2177,57.4307 93.5,59.5C 95.9773,60.3848 97.9773,61.7182 99.5,63.5 Z"/></g>
<g><path style="opacity:1" fill="#264758" d="M 195.5,59.5 C 195.157,61.4832 195.824,62.8166 197.5,63.5C 197.989,64.9952 198.655,66.3285 199.5,67.5C 199.5,68.5 199.5,69.5 199.5,70.5C 195.833,70.5 192.167,70.5 188.5,70.5C 188.5,75.1667 188.5,79.8333 188.5,84.5C 188.5,91.8333 188.5,99.1667 188.5,106.5C 188.167,106.5 187.833,106.5 187.5,106.5C 187.5,93.8333 187.5,81.1667 187.5,68.5C 187.5,64.8333 187.5,61.1667 187.5,57.5C 189.607,56.5318 191.941,56.1984 194.5,56.5C 194.263,57.791 194.596,58.791 195.5,59.5 Z"/></g>
<g><path style="opacity:1" fill="#26445a" d="M 171.5,55.5 C 174.5,55.5 177.5,55.5 180.5,55.5C 180.5,56.1667 180.5,56.8333 180.5,57.5C 179.549,58.9187 179.216,60.5853 179.5,62.5C 177.466,64.9388 175.299,67.2721 173,69.5C 172.601,69.2716 172.435,68.9382 172.5,68.5C 172.706,64.1018 172.373,59.7685 171.5,55.5 Z"/></g>
<g><path style="opacity:0.999" fill="#1e3f52" d="M 209.5,56.5 C 210.833,56.5 212.167,56.5 213.5,56.5C 213.5,60.8333 213.5,65.1667 213.5,69.5C 211.5,69.5 209.5,69.5 207.5,69.5C 207.815,65.6286 207.482,61.9619 206.5,58.5C 206.5,58.1667 206.5,57.8333 206.5,57.5C 207.209,56.596 208.209,56.2627 209.5,56.5 Z"/></g>
<g><path style="opacity:1" fill="#1f3f51" d="M 235.5,55.5 C 238.167,56.1667 240.833,56.8333 243.5,57.5C 243.5,58.5 243.5,59.5 243.5,60.5C 243.5,63.5 243.5,66.5 243.5,69.5C 242.5,69.5 241.5,69.5 240.5,69.5C 240.672,68.5084 240.338,67.8417 239.5,67.5C 239.309,63.4668 237.309,61.9668 233.5,63C 232.244,63.4169 231.577,64.2502 231.5,65.5C 229.952,65.8212 229.285,66.8212 229.5,68.5C 228.167,68.5 227.5,69.1667 227.5,70.5C 226.761,70.369 226.094,70.5357 225.5,71C 226.61,73.7372 226.777,76.5706 226,79.5C 225.333,80.8333 224.667,80.8333 224,79.5C 223.8,81.3197 222.966,82.653 221.5,83.5C 221.5,78.1667 221.5,72.8333 221.5,67.5C 222.167,65.5 222.833,63.5 223.5,61.5C 223.833,60.5 224.5,59.8333 225.5,59.5C 227.404,59.2624 228.738,58.2624 229.5,56.5C 231.621,56.6747 233.621,56.3414 235.5,55.5 Z"/></g>
<g><path style="opacity:1" fill="#7b8e97" d="M 239.5,67.5 C 237.18,65.7739 234.513,65.1072 231.5,65.5C 231.577,64.2502 232.244,63.4169 233.5,63C 237.309,61.9668 239.309,63.4668 239.5,67.5 Z"/></g>
<g><path style="opacity:1" fill="#65ae6c" d="M 99.5,63.5 C 99.7394,65.4672 99.4061,67.3005 98.5,69C 90.1667,69.6667 81.8333,69.6667 73.5,69C 72.062,68.7811 70.7287,68.2811 69.5,67.5C 71.0822,65.9853 72.4155,64.3186 73.5,62.5C 82.2679,60.8481 90.9346,61.1814 99.5,63.5 Z"/></g>
<g><path style="opacity:1" fill="#2c495b" d="M 124.5,68.5 C 120.03,69.4861 115.363,69.8195 110.5,69.5C 111.275,65.186 111.941,60.8526 112.5,56.5C 115.962,55.5184 119.629,55.185 123.5,55.5C 123.182,60.0323 123.515,64.3656 124.5,68.5 Z"/></g>
<g><path style="opacity:0.167" fill="#edeff0" d="M 197.5,63.5 C 199.176,64.1834 199.843,65.5168 199.5,67.5C 198.655,66.3285 197.989,64.9952 197.5,63.5 Z"/></g>
<g><path style="opacity:0.173" fill="#dfe4e7" d="M 223.5,61.5 C 222.833,63.5 222.167,65.5 221.5,67.5C 221.167,67.5 220.833,67.5 220.5,67.5C 220.461,64.911 221.461,62.911 223.5,61.5 Z"/></g>
<g><path style="opacity:0.915" fill="#d5dbde" d="M 211.5,52.5 C 211.5,53.5 211.5,54.5 211.5,55.5C 212.833,55.5 214.167,55.5 215.5,55.5C 215.5,73.1667 215.5,90.8333 215.5,108.5C 208.077,110.428 204.41,107.428 204.5,99.5C 205.864,101.22 206.864,103.22 207.5,105.5C 209.396,106.466 211.396,106.799 213.5,106.5C 214.833,89.8333 214.833,73.1667 213.5,56.5C 212.167,56.5 210.833,56.5 209.5,56.5C 209.5,55.5 209.5,54.5 209.5,53.5C 210.167,53.1667 210.833,52.8333 211.5,52.5 Z"/></g>
<g><path style="opacity:0.206" fill="#fafbfc" d="M 149.5,72.5 C 148.71,71.3915 148.21,70.0581 148,68.5C 147.5,78.1609 147.334,87.8276 147.5,97.5C 149.833,97.5 152.167,97.5 154.5,97.5C 154.5,98.1667 154.167,98.5 153.5,98.5C 151.167,98.5 148.833,98.5 146.5,98.5C 146.168,87.4798 146.501,76.4798 147.5,65.5C 148.086,65.7093 148.586,66.0426 149,66.5C 149.495,68.4727 149.662,70.4727 149.5,72.5 Z"/></g>
<g><path style="opacity:0.614" fill="#b3bcc3" d="M 206.5,58.5 C 207.482,61.9619 207.815,65.6286 207.5,69.5C 207.5,69.8333 207.5,70.1667 207.5,70.5C 207.5,72.1667 207.5,73.8333 207.5,75.5C 206.566,74.4324 206.232,73.099 206.5,71.5C 205.768,68.9325 205.768,66.2658 206.5,63.5C 206.5,61.8333 206.5,60.1667 206.5,58.5 Z"/></g>
<g><path style="opacity:0.145" fill="#d8dee1" d="M 231.5,65.5 C 231.715,67.1788 231.048,68.1788 229.5,68.5C 229.285,66.8212 229.952,65.8212 231.5,65.5 Z"/></g>
<g><path style="opacity:1" fill="#41596c" d="M 243.5,60.5 C 244.833,60.5 246.167,60.5 247.5,60.5C 247.5,64.8333 247.5,69.1667 247.5,73.5C 245.167,73.5 242.833,73.5 240.5,73.5C 240.5,72.1667 240.5,70.8333 240.5,69.5C 241.5,69.5 242.5,69.5 243.5,69.5C 243.5,66.5 243.5,63.5 243.5,60.5 Z"/></g>
<g><path style="opacity:0.275" fill="#eceff0" d="M 125.5,68.5 C 127.344,70.2789 128.01,72.6122 127.5,75.5C 126.833,73.8333 126.167,72.1667 125.5,70.5C 125.5,69.8333 125.5,69.1667 125.5,68.5 Z"/></g>
<g><path style="opacity:1" fill="#7ab386" d="M 73.5,62.5 C 72.4155,64.3186 71.0822,65.9853 69.5,67.5C 70.7287,68.2811 72.062,68.7811 73.5,69C 81.8333,69.6667 90.1667,69.6667 98.5,69C 99.4061,67.3005 99.7394,65.4672 99.5,63.5C 100.833,63.5 102.167,63.5 103.5,63.5C 103.5,65.1667 103.5,66.8333 103.5,68.5C 105.483,68.1568 106.817,68.8235 107.5,70.5C 107.557,71.609 107.89,72.609 108.5,73.5C 108.559,79.1603 107.559,84.4936 105.5,89.5C 104.89,83.1846 104.557,76.8513 104.5,70.5C 103.5,70.5 102.5,70.5 101.5,70.5C 100.5,70.5 99.5,70.5 98.5,70.5C 93.8333,70.5 89.1667,70.5 84.5,70.5C 79.1667,70.5 73.8333,70.5 68.5,70.5C 67.8333,70.5 67.1667,70.5 66.5,70.5C 66.5,69.8333 66.5,69.1667 66.5,68.5C 68.1935,65.8103 70.5268,63.8103 73.5,62.5 Z"/></g>
<g><path style="opacity:0.231" fill="#e1e5e7" d="M 112.5,56.5 C 111.941,60.8526 111.275,65.186 110.5,69.5C 110.5,69.8333 110.5,70.1667 110.5,70.5C 110.573,72.0269 109.906,73.0269 108.5,73.5C 107.89,72.609 107.557,71.609 107.5,70.5C 108.117,70.6107 108.617,70.944 109,71.5C 109.538,66.2185 110.705,61.2185 112.5,56.5 Z"/></g>
<g><path style="opacity:1" fill="#577081" d="M 124.5,68.5 C 124.833,68.5 125.167,68.5 125.5,68.5C 125.5,69.1667 125.5,69.8333 125.5,70.5C 122.5,70.5 119.5,70.5 116.5,70.5C 114.5,70.5 112.5,70.5 110.5,70.5C 110.5,70.1667 110.5,69.8333 110.5,69.5C 115.363,69.8195 120.03,69.4861 124.5,68.5 Z"/></g>
<g><path style="opacity:1" fill="#afd0de" d="M 186.5,57.5 C 186.833,57.5 187.167,57.5 187.5,57.5C 187.5,61.1667 187.5,64.8333 187.5,68.5C 185.214,68.595 183.214,69.2616 181.5,70.5C 180.833,70.5 180.167,70.5 179.5,70.5C 176.833,73.1667 174.167,75.8333 171.5,78.5C 171.813,75.1252 172.147,71.7918 172.5,68.5C 172.435,68.9382 172.601,69.2716 173,69.5C 175.299,67.2721 177.466,64.9388 179.5,62.5C 181.861,62.6741 184.194,63.0074 186.5,63.5C 186.5,61.5 186.5,59.5 186.5,57.5 Z"/></g>
<g><path style="opacity:0.093" fill="#fcfcfc" d="M 187.5,68.5 C 187.5,81.1667 187.5,93.8333 187.5,106.5C 189.948,107.473 192.615,107.806 195.5,107.5C 192.713,108.477 189.713,108.81 186.5,108.5C 186.667,95.4957 186.5,82.4957 186,69.5C 184.644,70.3802 183.144,70.7135 181.5,70.5C 183.214,69.2616 185.214,68.595 187.5,68.5 Z"/></g>
<g><path style="opacity:0.116" fill="#eff1f2" d="M 239.5,67.5 C 240.338,67.8417 240.672,68.5084 240.5,69.5C 240.5,70.8333 240.5,72.1667 240.5,73.5C 242.833,73.5 245.167,73.5 247.5,73.5C 245.365,75.369 242.698,76.0356 239.5,75.5C 239.5,72.8333 239.5,70.1667 239.5,67.5 Z"/></g>
<g><path style="opacity:1" fill="#1e4050" d="M 110.5,70.5 C 112.5,70.5 114.5,70.5 116.5,70.5C 116.5,71.1667 116.5,71.8333 116.5,72.5C 115.194,77.6161 114.527,82.9494 114.5,88.5C 114.5,90.5 114.5,92.5 114.5,94.5C 114.234,98.0794 112.901,98.4127 110.5,95.5C 109.914,95.7093 109.414,96.0426 109,96.5C 108.505,98.4727 108.338,100.473 108.5,102.5C 109.5,102.5 110.5,102.5 111.5,102.5C 111.5,103.833 111.5,105.167 111.5,106.5C 108.833,106.5 106.167,106.5 103.5,106.5C 103.5,105.833 103.5,105.167 103.5,104.5C 104.625,103.652 104.625,102.652 103.5,101.5C 103.942,97.8455 104.276,94.1788 104.5,90.5C 105.167,90.5 105.5,90.1667 105.5,89.5C 107.559,84.4936 108.559,79.1603 108.5,73.5C 109.906,73.0269 110.573,72.0269 110.5,70.5 Z"/></g>
<g><path style="opacity:1" fill="#2d495e" d="M 116.5,70.5 C 119.5,70.5 122.5,70.5 125.5,70.5C 125.28,75.1 125.946,79.4333 127.5,83.5C 126.964,86.6981 127.631,89.3647 129.5,91.5C 130.219,93.7638 130.552,96.0971 130.5,98.5C 130.5,101.167 130.5,103.833 130.5,106.5C 128.5,106.5 126.5,106.5 124.5,106.5C 124.167,106.5 123.833,106.5 123.5,106.5C 122.566,105.432 122.232,104.099 122.5,102.5C 119.167,102.5 115.833,102.5 112.5,102.5C 115.403,100.896 118.737,99.8962 122.5,99.5C 125.242,97.0669 126.075,94.0669 125,90.5C 123.723,88.2528 122.223,86.2528 120.5,84.5C 120.341,80.7091 119.675,77.0424 118.5,73.5C 118.158,72.6618 117.492,72.3284 116.5,72.5C 116.5,71.8333 116.5,71.1667 116.5,70.5 Z"/></g>
<g><path style="opacity:1" fill="#204052" d="M 199.5,70.5 C 199.285,72.1788 199.952,73.1788 201.5,73.5C 202.263,75.3684 203.263,77.0351 204.5,78.5C 204.5,79.5 204.5,80.5 204.5,81.5C 204.743,82.7689 205.743,82.7689 207.5,81.5C 207.5,79.5 207.5,77.5 207.5,75.5C 207.5,73.8333 207.5,72.1667 207.5,70.5C 209.5,70.5 211.5,70.5 213.5,70.5C 213.5,82.5 213.5,94.5 213.5,106.5C 211.396,106.799 209.396,106.466 207.5,105.5C 206.864,103.22 205.864,101.22 204.5,99.5C 204.34,97.847 203.674,96.5137 202.5,95.5C 201.662,95.1583 201.328,94.4916 201.5,93.5C 201.34,91.847 200.674,90.5137 199.5,89.5C 198.596,88.791 198.263,87.791 198.5,86.5C 198.34,84.847 197.674,83.5137 196.5,82.5C 195.377,81.2426 194.711,81.5759 194.5,83.5C 192.598,85.1511 190.598,85.4845 188.5,84.5C 188.5,79.8333 188.5,75.1667 188.5,70.5C 192.167,70.5 195.833,70.5 199.5,70.5 Z"/></g>
<g><path style="opacity:0.034" fill="#f3f5f6" d="M 206.5,71.5 C 206.232,73.099 206.566,74.4324 207.5,75.5C 207.5,77.5 207.5,79.5 207.5,81.5C 206.5,81.5 205.5,81.5 204.5,81.5C 204.5,80.5 204.5,79.5 204.5,78.5C 205.167,76.1667 205.833,73.8333 206.5,71.5 Z"/></g>
<g><path style="opacity:0.082" fill="#edf3ef" d="M 66.5,68.5 C 66.5,69.1667 66.5,69.8333 66.5,70.5C 65.0937,70.9731 64.427,71.9731 64.5,73.5C 63.8333,74.1667 63.1667,74.8333 62.5,75.5C 62.5548,72.3855 63.8881,70.0522 66.5,68.5 Z"/></g>
<g><path style="opacity:1" fill="#5ba560" d="M 68.5,70.5 C 73.8333,70.5 79.1667,70.5 84.5,70.5C 81.1584,73.2676 77.6584,75.9343 74,78.5C 73.3828,79.4491 73.5494,80.2825 74.5,81C 75.7688,80.8915 76.7688,81.0582 77.5,81.5C 76.9157,86.9403 79.4157,90.607 85,92.5C 86.3026,92.0217 87.4693,91.355 88.5,90.5C 86.75,93.756 84.4166,96.5894 81.5,99C 79.1558,99.8372 77.1558,101.171 75.5,103C 76,103.5 76.5,104 77,104.5C 78.129,102.859 79.629,101.859 81.5,101.5C 81.5,102.5 81.5,103.5 81.5,104.5C 80.0413,104.433 78.7079,104.766 77.5,105.5C 75.9731,105.573 74.9731,104.906 74.5,103.5C 74.631,102.761 74.4643,102.094 74,101.5C 72.1554,100.95 70.6554,99.9505 69.5,98.5C 73.4301,97.4373 73.4301,96.4373 69.5,95.5C 68.4324,94.5655 67.099,94.2322 65.5,94.5C 65.1924,92.076 65.5258,89.7427 66.5,87.5C 69.2055,92.3727 73.0388,96.0394 78,98.5C 79.8261,97.9896 79.9928,97.1562 78.5,96C 80.2556,95.7978 81.9223,95.2978 83.5,94.5C 75.4436,88.3825 70.4436,80.3825 68.5,70.5 Z"/></g>
<g><path style="opacity:1" fill="#445f6e" d="M 213.5,56.5 C 214.833,73.1667 214.833,89.8333 213.5,106.5C 213.5,94.5 213.5,82.5 213.5,70.5C 211.5,70.5 209.5,70.5 207.5,70.5C 207.5,70.1667 207.5,69.8333 207.5,69.5C 209.5,69.5 211.5,69.5 213.5,69.5C 213.5,65.1667 213.5,60.8333 213.5,56.5 Z"/></g>
<g><path style="opacity:0.146" fill="#fafafb" d="M 137.5,56.5 C 137.5,73.5 137.5,90.5 137.5,107.5C 143.026,107.821 148.36,107.488 153.5,106.5C 154.167,106.5 154.833,106.5 155.5,106.5C 154.526,108.085 153.026,109.085 151,109.5C 146.414,108.619 141.914,108.286 137.5,108.5C 136.173,91.0046 136.173,73.6713 137.5,56.5 Z"/></g>
<g><path style="opacity:0.099" fill="#eef1f2" d="M 201.5,73.5 C 204.084,74.0483 205.084,75.715 204.5,78.5C 203.263,77.0351 202.263,75.3684 201.5,73.5 Z"/></g>
<g><path style="opacity:0.004" fill="#fefffe" d="M 239.5,75.5 C 238.833,76.1667 238.833,76.1667 239.5,75.5 Z"/></g>
<g><path style="opacity:1" fill="#b2cbdb" d="M 145.5,64.5 C 150.094,63.6572 153.761,64.9906 156.5,68.5C 156.205,70.7354 156.539,72.7354 157.5,74.5C 158.391,75.1098 159.391,75.4431 160.5,75.5C 161.919,76.4511 163.585,76.7845 165.5,76.5C 165.5,73.5 165.5,70.5 165.5,67.5C 165.833,67.5 166.167,67.5 166.5,67.5C 166.26,70.5788 166.593,73.5788 167.5,76.5C 165.577,77.3078 163.577,77.8078 161.5,78C 164.722,79.8175 168.055,79.9842 171.5,78.5C 171.5,79.1667 171.5,79.8333 171.5,80.5C 169.833,80.5 168.167,80.5 166.5,80.5C 166.819,85.3633 166.486,90.03 165.5,94.5C 165.5,89.8333 165.5,85.1667 165.5,80.5C 163.833,80.5 162.167,80.5 160.5,80.5C 159.5,80.5 158.5,80.5 157.5,80.5C 155.167,78.5 152.833,76.5 150.5,74.5C 150.167,73.8333 149.833,73.1667 149.5,72.5C 149.662,70.4727 149.495,68.4727 149,66.5C 148.586,66.0426 148.086,65.7093 147.5,65.5C 146.501,76.4798 146.168,87.4798 146.5,98.5C 145.833,98.5 145.5,98.1667 145.5,97.5C 145.5,86.5 145.5,75.5 145.5,64.5 Z"/></g>
<g><path style="opacity:1" fill="#1e4057" d="M 160.5,75.5 C 159.391,75.4431 158.391,75.1098 157.5,74.5C 157.5,73.1667 157.5,71.8333 157.5,70.5C 159.833,70.5 162.167,70.5 164.5,70.5C 164.5,72.1667 164.5,73.8333 164.5,75.5C 163.167,75.5 161.833,75.5 160.5,75.5 Z"/></g>
<g><path style="opacity:0.999" fill="#5f7b8d" d="M 164.5,67.5 C 164.833,67.5 165.167,67.5 165.5,67.5C 165.5,70.5 165.5,73.5 165.5,76.5C 163.585,76.7845 161.919,76.4511 160.5,75.5C 161.833,75.5 163.167,75.5 164.5,75.5C 164.5,73.8333 164.5,72.1667 164.5,70.5C 162.167,70.5 159.833,70.5 157.5,70.5C 157.5,71.8333 157.5,73.1667 157.5,74.5C 156.539,72.7354 156.205,70.7354 156.5,68.5C 159.615,70.1774 162.282,69.8441 164.5,67.5 Z"/></g>
<g><path style="opacity:0.056" fill="#eff5f0" d="M 62.5,75.5 C 61.5395,81.138 61.5395,86.8047 62.5,92.5C 61.7784,92.0825 61.2784,91.4158 61,90.5C 60.3333,86.1667 60.3333,81.8333 61,77.5C 61.2784,76.5842 61.7784,75.9175 62.5,75.5 Z"/></g>
<g><path style="opacity:1" fill="#63af68" d="M 84.5,70.5 C 89.1667,70.5 93.8333,70.5 98.5,70.5C 98.665,73.8499 98.4983,77.1832 98,80.5C 97.6924,81.3081 97.1924,81.9747 96.5,82.5C 95.7189,81.2713 95.2189,79.938 95,78.5C 93.0168,81.0679 93.1835,83.4012 95.5,85.5C 92.5569,92.4368 87.8902,97.7701 81.5,101.5C 79.629,101.859 78.129,102.859 77,104.5C 76.5,104 76,103.5 75.5,103C 77.1558,101.171 79.1558,99.8372 81.5,99C 84.4166,96.5894 86.75,93.756 88.5,90.5C 91.5739,85.4496 93.5739,79.9496 94.5,74C 88.0383,74.6555 82.3717,77.1555 77.5,81.5C 76.7688,81.0582 75.7688,80.8915 74.5,81C 73.5494,80.2825 73.3828,79.4491 74,78.5C 77.6584,75.9343 81.1584,73.2676 84.5,70.5 Z"/></g>
<g><path style="opacity:1" fill="#5a707f" d="M 125.5,70.5 C 126.167,72.1667 126.833,73.8333 127.5,75.5C 127.5,78.1667 127.5,80.8333 127.5,83.5C 125.946,79.4333 125.28,75.1 125.5,70.5 Z"/></g>
<g><path style="opacity:1" fill="#69b76e" d="M 88.5,90.5 C 87.4693,91.355 86.3026,92.0217 85,92.5C 79.4157,90.607 76.9157,86.9403 77.5,81.5C 82.3717,77.1555 88.0383,74.6555 94.5,74C 93.5739,79.9496 91.5739,85.4496 88.5,90.5 Z"/></g>
<g><path style="opacity:0.08" fill="#e3e7e9" d="M 118.5,73.5 C 119.675,77.0424 120.341,80.7091 120.5,84.5C 120.833,87.8333 121.167,91.1667 121.5,94.5C 119.167,94.5 116.833,94.5 114.5,94.5C 114.5,92.5 114.5,90.5 114.5,88.5C 114.833,88.5 115.167,88.5 115.5,88.5C 115.5,90.1667 115.5,91.8333 115.5,93.5C 117.167,93.5 118.833,93.5 120.5,93.5C 119.993,88.7774 119.16,84.1107 118,79.5C 117.768,80.7375 117.268,81.7375 116.5,82.5C 116.068,79.1226 116.735,76.1226 118.5,73.5 Z"/></g>
<g><path style="opacity:0.115" fill="#f2f4f5" d="M 150.5,74.5 C 152.833,76.5 155.167,78.5 157.5,80.5C 157.666,85.1785 157.499,89.8452 157,94.5C 156.722,95.4158 156.222,96.0825 155.5,96.5C 155.5,94.8333 155.5,93.1667 155.5,91.5C 154.5,91.5 153.5,91.5 152.5,91.5C 152.5,90.1667 152.5,88.8333 152.5,87.5C 153.5,87.5 154.5,87.5 155.5,87.5C 155.663,85.1432 155.497,82.8098 155,80.5C 152.873,78.8863 151.373,76.8863 150.5,74.5 Z"/></g>
<g><path style="opacity:1" fill="#67b16c" d="M 66.5,70.5 C 67.1667,70.5 67.8333,70.5 68.5,70.5C 70.4436,80.3825 75.4436,88.3825 83.5,94.5C 81.9223,95.2978 80.2556,95.7978 78.5,96C 79.9928,97.1562 79.8261,97.9896 78,98.5C 73.0388,96.0394 69.2055,92.3727 66.5,87.5C 65.5258,89.7427 65.1924,92.076 65.5,94.5C 67.099,94.2322 68.4324,94.5655 69.5,95.5C 67.8333,95.5 66.1667,95.5 64.5,95.5C 64.5,88.1667 64.5,80.8333 64.5,73.5C 64.427,71.9731 65.0937,70.9731 66.5,70.5 Z"/></g>
<g><path style="opacity:1" fill="#1b3c4f" d="M 243.5,81.5 C 243.5,83.8333 243.5,86.1667 243.5,88.5C 240.833,88.5 238.167,88.5 235.5,88.5C 235.5,86.1667 235.5,83.8333 235.5,81.5C 238.167,81.5 240.833,81.5 243.5,81.5 Z"/></g>
<g><path style="opacity:0.199" fill="#fafafb" d="M 171.5,80.5 C 171.5,81.1667 171.5,81.8333 171.5,82.5C 170.312,81.3157 169.145,81.3157 168,82.5C 168.108,87.2803 167.275,91.6136 165.5,95.5C 165.5,95.1667 165.5,94.8333 165.5,94.5C 166.486,90.03 166.819,85.3633 166.5,80.5C 168.167,80.5 169.833,80.5 171.5,80.5 Z"/></g>
<g><path style="opacity:1" fill="#6e838f" d="M 116.5,72.5 C 117.492,72.3284 118.158,72.6618 118.5,73.5C 116.735,76.1226 116.068,79.1226 116.5,82.5C 115.539,84.2646 115.205,86.2646 115.5,88.5C 115.167,88.5 114.833,88.5 114.5,88.5C 114.527,82.9494 115.194,77.6161 116.5,72.5 Z"/></g>
<g><path style="opacity:0.17" fill="#f0f2f3" d="M 196.5,82.5 C 197.674,83.5137 198.34,84.847 198.5,86.5C 197.883,86.3893 197.383,86.056 197,85.5C 196.79,87.0581 196.29,88.3915 195.5,89.5C 195.198,86.9407 195.532,84.6074 196.5,82.5 Z"/></g>
<g><path style="opacity:1" fill="#203f55" d="M 227.5,70.5 C 227.5,78.8333 227.5,87.1667 227.5,95.5C 227.317,97.9363 227.984,100.103 229.5,102C 233.388,102.846 237.055,104.013 240.5,105.5C 236.454,107.798 232.12,108.131 227.5,106.5C 226.5,104.833 225.167,103.5 223.5,102.5C 222.833,102.5 222.5,102.167 222.5,101.5C 221.637,95.5451 221.303,89.5451 221.5,83.5C 222.966,82.653 223.8,81.3197 224,79.5C 224.667,80.8333 225.333,80.8333 226,79.5C 226.777,76.5706 226.61,73.7372 225.5,71C 226.094,70.5357 226.761,70.369 227.5,70.5 Z"/></g>
<g><path style="opacity:0.162" fill="#fafafb" d="M 44.5,56.5 C 44.5,71.1667 44.5,85.8333 44.5,100.5C 44.5,101.167 44.1667,101.5 43.5,101.5C 40.5,101.5 37.5,101.5 34.5,101.5C 37.2869,100.523 40.2869,100.19 43.5,100.5C 43.1707,85.6572 43.504,70.9905 44.5,56.5 Z"/></g>
<g><path style="opacity:1" fill="#60a969" d="M 98.5,70.5 C 99.5,70.5 100.5,70.5 101.5,70.5C 101.378,79.9191 98.0448,88.0857 91.5,95C 92.5,95.6667 93.5,95.6667 94.5,95C 97.388,91.7784 99.888,88.2784 102,84.5C 102.92,84.9302 103.753,85.2635 104.5,85.5C 101.645,88.5202 98.9787,91.6868 96.5,95C 97.9078,95.3152 99.2411,94.9819 100.5,94C 101.705,92.6244 103.038,91.4577 104.5,90.5C 104.276,94.1788 103.942,97.8455 103.5,101.5C 101.847,101.66 100.514,102.326 99.5,103.5C 99.5,103.833 99.5,104.167 99.5,104.5C 97.847,104.66 96.5137,105.326 95.5,106.5C 90.2039,107.509 84.8706,107.676 79.5,107C 78.5842,106.722 77.9175,106.222 77.5,105.5C 78.7079,104.766 80.0413,104.433 81.5,104.5C 81.5,103.5 81.5,102.5 81.5,101.5C 87.8902,97.7701 92.5569,92.4368 95.5,85.5C 93.1835,83.4012 93.0168,81.0679 95,78.5C 95.2189,79.938 95.7189,81.2713 96.5,82.5C 97.1924,81.9747 97.6924,81.3081 98,80.5C 98.4983,77.1832 98.665,73.8499 98.5,70.5 Z"/></g>
<g><path style="opacity:1" fill="#586a7c" d="M 160.5,80.5 C 162.167,80.5 163.833,80.5 165.5,80.5C 165.5,85.1667 165.5,89.8333 165.5,94.5C 165.5,94.8333 165.5,95.1667 165.5,95.5C 165.167,95.5 164.833,95.5 164.5,95.5C 164.5,90.8333 164.5,86.1667 164.5,81.5C 162.901,81.7678 161.568,81.4345 160.5,80.5 Z"/></g>
<g><path style="opacity:1" fill="#193c4f" d="M 145.5,97.5 C 145.5,98.1667 145.833,98.5 146.5,98.5C 148.833,98.5 151.167,98.5 153.5,98.5C 153.5,101.167 153.5,103.833 153.5,106.5C 148.5,106.5 143.5,106.5 138.5,106.5C 138.5,94.5 138.5,82.5 138.5,70.5C 140.5,70.5 142.5,70.5 144.5,70.5C 144.173,79.6822 144.507,88.6822 145.5,97.5 Z"/></g>
<g><path style="opacity:0.318" fill="#cdd4d8" d="M 247.5,81.5 C 246.167,81.5 244.833,81.5 243.5,81.5C 240.833,81.5 238.167,81.5 235.5,81.5C 235.5,83.8333 235.5,86.1667 235.5,88.5C 236.919,89.4511 238.585,89.7845 240.5,89.5C 240.664,92.1873 240.497,94.854 240,97.5C 239.329,98.2524 238.496,98.5858 237.5,98.5C 239.226,96.1799 239.893,93.5133 239.5,90.5C 237.833,90.5 236.167,90.5 234.5,90.5C 234.784,87.2234 234.451,84.0567 233.5,81C 238.352,80.1849 243.019,80.3516 247.5,81.5 Z"/></g>
<g><path style="opacity:1" fill="#1d3e52" d="M 51.5,70.5 C 51.5,79.8333 51.5,89.1667 51.5,98.5C 52.8333,98.5 54.1667,98.5 55.5,98.5C 59.5546,98.1758 63.5546,98.5091 67.5,99.5C 67.8627,100.183 68.1961,100.85 68.5,101.5C 68.5,102.5 68.5,103.5 68.5,104.5C 67.6618,104.842 67.3284,105.508 67.5,106.5C 59.8045,106.831 52.1378,106.497 44.5,105.5C 44.1373,104.817 43.8039,104.15 43.5,103.5C 43.5,102.833 43.5,102.167 43.5,101.5C 44.1667,101.5 44.5,101.167 44.5,100.5C 45.494,90.6806 45.8274,80.6806 45.5,70.5C 47.5,70.5 49.5,70.5 51.5,70.5 Z"/></g>
<g><path style="opacity:1" fill="#67b36e" d="M 101.5,70.5 C 102.5,70.5 103.5,70.5 104.5,70.5C 104.557,76.8513 104.89,83.1846 105.5,89.5C 105.5,90.1667 105.167,90.5 104.5,90.5C 103.038,91.4577 101.705,92.6244 100.5,94C 99.2411,94.9819 97.9078,95.3152 96.5,95C 98.9787,91.6868 101.645,88.5202 104.5,85.5C 103.753,85.2635 102.92,84.9302 102,84.5C 99.888,88.2784 97.388,91.7784 94.5,95C 93.5,95.6667 92.5,95.6667 91.5,95C 98.0448,88.0857 101.378,79.9191 101.5,70.5 Z"/></g>
<g><path style="opacity:0.999" fill="#1d3e51" d="M 179.5,70.5 C 179.5,82.5 179.5,94.5 179.5,106.5C 177.167,106.5 174.833,106.5 172.5,106.5C 172.826,97.6506 172.493,88.9839 171.5,80.5C 171.5,79.8333 171.5,79.1667 171.5,78.5C 174.167,75.8333 176.833,73.1667 179.5,70.5 Z"/></g>
<g><path style="opacity:1" fill="#1a3c4f" d="M 194.5,83.5 C 194.5,91.1667 194.5,98.8333 194.5,106.5C 192.5,106.5 190.5,106.5 188.5,106.5C 188.5,99.1667 188.5,91.8333 188.5,84.5C 190.598,85.4845 192.598,85.1511 194.5,83.5 Z"/></g>
<g><path style="opacity:0.059" fill="#eef0f2" d="M 199.5,89.5 C 200.674,90.5137 201.34,91.847 201.5,93.5C 199.896,92.713 199.229,91.3797 199.5,89.5 Z"/></g>
<g><path style="opacity:0.141" fill="#f0f2f3" d="M 129.5,91.5 C 131.344,93.2789 132.01,95.6122 131.5,98.5C 131.167,98.5 130.833,98.5 130.5,98.5C 130.552,96.0971 130.219,93.7638 129.5,91.5 Z"/></g>
<g><path style="opacity:1" fill="#234254" d="M 157.5,80.5 C 158.5,80.5 159.5,80.5 160.5,80.5C 161.568,81.4345 162.901,81.7678 164.5,81.5C 164.5,86.1667 164.5,90.8333 164.5,95.5C 163.566,96.5676 163.232,97.901 163.5,99.5C 162.512,100.795 161.512,102.128 160.5,103.5C 159.833,103.5 159.5,103.833 159.5,104.5C 157.847,104.66 156.514,105.326 155.5,106.5C 154.833,106.5 154.167,106.5 153.5,106.5C 153.5,103.833 153.5,101.167 153.5,98.5C 154.167,98.5 154.5,98.1667 154.5,97.5C 154.5,96.8333 154.833,96.5 155.5,96.5C 156.222,96.0825 156.722,95.4158 157,94.5C 157.499,89.8452 157.666,85.1785 157.5,80.5 Z"/></g>
<g><path style="opacity:0.845" fill="#a5b2ba" d="M 220.5,67.5 C 220.833,67.5 221.167,67.5 221.5,67.5C 221.5,72.8333 221.5,78.1667 221.5,83.5C 221.303,89.5451 221.637,95.5451 222.5,101.5C 220.982,99.3193 219.982,96.8193 219.5,94C 220.395,85.2228 220.729,76.3894 220.5,67.5 Z"/></g>
<g><path style="opacity:1" fill="#74ad81" d="M 64.5,73.5 C 64.5,80.8333 64.5,88.1667 64.5,95.5C 66.1667,95.5 67.8333,95.5 69.5,95.5C 73.4301,96.4373 73.4301,97.4373 69.5,98.5C 70.6554,99.9505 72.1554,100.95 74,101.5C 74.4643,102.094 74.631,102.761 74.5,103.5C 73.1667,103.5 71.8333,103.5 70.5,103.5C 70.5,102.167 69.8333,101.5 68.5,101.5C 68.1961,100.85 67.8627,100.183 67.5,99.5C 63.5546,98.5091 59.5546,98.1758 55.5,98.5C 57.2922,97.6909 59.2922,97.1909 61.5,97C 62.3802,95.6439 62.7135,94.1439 62.5,92.5C 61.5395,86.8047 61.5395,81.138 62.5,75.5C 63.1667,74.8333 63.8333,74.1667 64.5,73.5 Z"/></g>
<g><path style="opacity:1" fill="#1c3f4d" d="M 120.5,84.5 C 122.223,86.2528 123.723,88.2528 125,90.5C 126.075,94.0669 125.242,97.0669 122.5,99.5C 118.737,99.8962 115.403,100.896 112.5,102.5C 112.167,102.5 111.833,102.5 111.5,102.5C 110.5,102.5 109.5,102.5 108.5,102.5C 108.338,100.473 108.505,98.4727 109,96.5C 109.414,96.0426 109.914,95.7093 110.5,95.5C 112.901,98.4127 114.234,98.0794 114.5,94.5C 116.833,94.5 119.167,94.5 121.5,94.5C 121.167,91.1667 120.833,87.8333 120.5,84.5 Z"/></g>
<g><path style="opacity:0.067" fill="#e5e8ea" d="M 202.5,95.5 C 203.674,96.5137 204.34,97.847 204.5,99.5C 202.896,98.713 202.229,97.3797 202.5,95.5 Z"/></g>
<g><path style="opacity:0.929" fill="#4b6574" d="M 137.5,56.5 C 137.833,56.5 138.167,56.5 138.5,56.5C 138.5,60.8333 138.5,65.1667 138.5,69.5C 140.5,69.5 142.5,69.5 144.5,69.5C 144.216,67.5853 144.549,65.9187 145.5,64.5C 145.5,75.5 145.5,86.5 145.5,97.5C 144.507,88.6822 144.173,79.6822 144.5,70.5C 142.5,70.5 140.5,70.5 138.5,70.5C 138.5,82.5 138.5,94.5 138.5,106.5C 143.5,106.5 148.5,106.5 153.5,106.5C 148.36,107.488 143.026,107.821 137.5,107.5C 137.5,90.5 137.5,73.5 137.5,56.5 Z"/></g>
<g><path style="opacity:1" fill="#758895" d="M 196.5,82.5 C 195.532,84.6074 195.198,86.9407 195.5,89.5C 195.5,95.5 195.5,101.5 195.5,107.5C 192.615,107.806 189.948,107.473 187.5,106.5C 187.833,106.5 188.167,106.5 188.5,106.5C 190.5,106.5 192.5,106.5 194.5,106.5C 194.5,98.8333 194.5,91.1667 194.5,83.5C 194.711,81.5759 195.377,81.2426 196.5,82.5 Z"/></g>
<g><path style="opacity:1" fill="#1d4055" d="M 253.5,98.5 C 255.5,98.5 257.5,98.5 259.5,98.5C 259.5,101.167 259.5,103.833 259.5,106.5C 257.5,106.5 255.5,106.5 253.5,106.5C 253.5,103.833 253.5,101.167 253.5,98.5 Z"/></g>
<g><path style="opacity:1" fill="#264559" d="M 271.5,98.5 C 272.833,98.5 274.167,98.5 275.5,98.5C 275.5,101.167 275.5,103.833 275.5,106.5C 272.833,106.5 270.167,106.5 267.5,106.5C 267.337,104.143 267.503,101.81 268,99.5C 269.011,98.6634 270.178,98.33 271.5,98.5 Z"/></g>
<g><path style="opacity:0.352" fill="#dbe1e3" d="M 163.5,99.5 C 163.5,100.833 163.5,102.167 163.5,103.5C 162.5,103.5 161.5,103.5 160.5,103.5C 161.512,102.128 162.512,100.795 163.5,99.5 Z"/></g>
<g><path style="opacity:0.561" fill="#bbc4ca" d="M 171.5,80.5 C 172.493,88.9839 172.826,97.6506 172.5,106.5C 174.833,106.5 177.167,106.5 179.5,106.5C 179.5,106.833 179.5,107.167 179.5,107.5C 176.833,107.5 174.167,107.5 171.5,107.5C 171.5,105.833 171.5,104.167 171.5,102.5C 170.658,95.8001 170.658,89.1334 171.5,82.5C 171.5,81.8333 171.5,81.1667 171.5,80.5 Z"/></g>
<g><path style="opacity:0.831" fill="#d1d7da" d="M 247.5,100.5 C 247.715,102.179 247.048,103.179 245.5,103.5C 245.427,101.973 246.094,100.973 247.5,100.5 Z"/></g>
<g><path style="opacity:0.083" fill="#e3e7ea" d="M 271.5,98.5 C 270.178,98.33 269.011,98.6634 268,99.5C 267.503,101.81 267.337,104.143 267.5,106.5C 270.167,106.5 272.833,106.5 275.5,106.5C 273.012,108.388 270.012,109.055 266.5,108.5C 266.335,105.15 266.502,101.817 267,98.5C 268.616,97.1991 270.116,97.1991 271.5,98.5 Z"/></g>
<g><path style="opacity:1" fill="#71838f" d="M 290.5,98.5 C 290.5,101.5 290.5,104.5 290.5,107.5C 287.615,107.806 284.948,107.473 282.5,106.5C 284.833,106.5 287.167,106.5 289.5,106.5C 289.5,104.167 289.5,101.833 289.5,99.5C 287.167,99.5 284.833,99.5 282.5,99.5C 282.5,99.1667 282.5,98.8333 282.5,98.5C 285.104,97.4696 287.771,97.4696 290.5,98.5 Z"/></g>
<g><path style="opacity:0.319" fill="#e7eeea" d="M 68.5,101.5 C 69.8333,101.5 70.5,102.167 70.5,103.5C 69.8333,103.833 69.1667,104.167 68.5,104.5C 68.5,103.5 68.5,102.5 68.5,101.5 Z"/></g>
<g><path style="opacity:0.435" fill="#c8d5ce" d="M 103.5,101.5 C 104.625,102.652 104.625,103.652 103.5,104.5C 102.432,103.566 101.099,103.232 99.5,103.5C 100.514,102.326 101.847,101.66 103.5,101.5 Z"/></g>
<g><path style="opacity:1" fill="#28495a" d="M 243.5,81.5 C 244.833,81.5 246.167,81.5 247.5,81.5C 247.5,87.8333 247.5,94.1667 247.5,100.5C 246.094,100.973 245.427,101.973 245.5,103.5C 244.167,103.5 243.5,104.167 243.5,105.5C 242.5,105.5 241.5,105.5 240.5,105.5C 237.055,104.013 233.388,102.846 229.5,102C 227.984,100.103 227.317,97.9363 227.5,95.5C 228.833,95.5 230.167,95.5 231.5,95.5C 231.5,96.5 231.5,97.5 231.5,98.5C 233.5,98.5 235.5,98.5 237.5,98.5C 238.496,98.5858 239.329,98.2524 240,97.5C 240.497,94.854 240.664,92.1873 240.5,89.5C 238.585,89.7845 236.919,89.4511 235.5,88.5C 238.167,88.5 240.833,88.5 243.5,88.5C 243.5,86.1667 243.5,83.8333 243.5,81.5 Z"/></g>
<g><path style="opacity:0.248" fill="#e8ebed" d="M 282.5,98.5 C 282.5,98.8333 282.5,99.1667 282.5,99.5C 282.5,101.833 282.5,104.167 282.5,106.5C 284.948,107.473 287.615,107.806 290.5,107.5C 290.5,104.5 290.5,101.5 290.5,98.5C 291.479,101.625 291.813,104.958 291.5,108.5C 288.167,108.5 284.833,108.5 281.5,108.5C 281.187,104.958 281.521,101.625 282.5,98.5 Z"/></g>
<g><path style="opacity:1" fill="#1e3c55" d="M 282.5,99.5 C 284.833,99.5 287.167,99.5 289.5,99.5C 289.5,101.833 289.5,104.167 289.5,106.5C 287.167,106.5 284.833,106.5 282.5,106.5C 282.5,104.167 282.5,101.833 282.5,99.5 Z"/></g>
<g><path style="opacity:0.118" fill="#dfe2e5" d="M 223.5,102.5 C 225.167,103.5 226.5,104.833 227.5,106.5C 225.167,106.167 223.833,104.833 223.5,102.5 Z"/></g>
<g><path style="opacity:1" fill="#98c1a4" d="M 34.5,101.5 C 37.5,101.5 40.5,101.5 43.5,101.5C 43.5,102.167 43.5,102.833 43.5,103.5C 36.5002,103.213 29.8335,104.213 23.5,106.5C 22.8166,108.176 21.4832,108.843 19.5,108.5C 19.5,111.167 19.5,113.833 19.5,116.5C 23.8059,117.66 28.1392,118.66 32.5,119.5C 38.3465,120.167 44.3465,120.833 50.5,121.5C 40.7627,122.863 31.096,122.53 21.5,120.5C 19.2475,120.084 17.7475,118.751 17,116.5C 15.4507,109.766 17.9507,105.266 24.5,103C 27.7568,101.957 31.0901,101.457 34.5,101.5 Z"/></g>
<g><path style="opacity:0.359" fill="#d8dedf" d="M 43.5,103.5 C 43.8039,104.15 44.1373,104.817 44.5,105.5C 52.1378,106.497 59.8045,106.831 67.5,106.5C 64.0623,107.823 60.229,108.49 56,108.5C 52.1667,108.333 48.3333,108.167 44.5,108C 44.0426,107.586 43.7093,107.086 43.5,106.5C 36.831,105.334 30.1643,105.334 23.5,106.5C 29.8335,104.213 36.5002,103.213 43.5,103.5 Z"/></g>
<g><path style="opacity:0.169" fill="#e1e8e3" d="M 99.5,104.5 C 98.8166,106.176 97.4832,106.843 95.5,106.5C 96.5137,105.326 97.847,104.66 99.5,104.5 Z"/></g>
<g><path style="opacity:1" fill="#6a808e" d="M 130.5,98.5 C 130.833,98.5 131.167,98.5 131.5,98.5C 131.5,101.5 131.5,104.5 131.5,107.5C 128.941,107.802 126.607,107.468 124.5,106.5C 126.5,106.5 128.5,106.5 130.5,106.5C 130.5,103.833 130.5,101.167 130.5,98.5 Z"/></g>
<g><path style="opacity:0.384" fill="#e5e8eb" d="M 159.5,104.5 C 158.817,106.176 157.483,106.843 155.5,106.5C 156.514,105.326 157.847,104.66 159.5,104.5 Z"/></g>
<g><path style="opacity:0.957" fill="#9ba8b1" d="M 253.5,98.5 C 253.5,101.167 253.5,103.833 253.5,106.5C 255.5,106.5 257.5,106.5 259.5,106.5C 258.848,107.725 257.681,108.392 256,108.5C 252.108,108.766 250.608,106.933 251.5,103C 251.569,101.014 252.235,99.5145 253.5,98.5 Z"/></g>
<g><path style="opacity:1" fill="#cadace" d="M 70.5,103.5 C 71.8333,103.5 73.1667,103.5 74.5,103.5C 74.9731,104.906 75.9731,105.573 77.5,105.5C 77.9175,106.222 78.5842,106.722 79.5,107C 84.8706,107.676 90.2039,107.509 95.5,106.5C 94.7703,108.045 93.437,108.878 91.5,109C 83.3891,110.926 76.3891,109.093 70.5,103.5 Z"/></g>
<g><path style="opacity:0.929" fill="#cbd2d6" d="M 103.5,106.5 C 106.167,106.5 108.833,106.5 111.5,106.5C 110.666,107.748 109.333,108.415 107.5,108.5C 106.167,108.333 104.833,108.167 103.5,108C 102.262,107.31 102.262,106.81 103.5,106.5 Z"/></g>
<g><path style="opacity:0.686" fill="#eff1f3" d="M 123.5,106.5 C 123.833,106.5 124.167,106.5 124.5,106.5C 126.607,107.468 128.941,107.802 131.5,107.5C 130.378,108.156 129.045,108.489 127.5,108.5C 125.667,108.415 124.334,107.748 123.5,106.5 Z"/></g>
<g><path style="opacity:0.639" fill="#f6f7f7" d="M 171.5,102.5 C 171.5,104.167 171.5,105.833 171.5,107.5C 174.167,107.5 176.833,107.5 179.5,107.5C 179.03,108.693 178.03,109.36 176.5,109.5C 174.488,109.16 172.488,108.827 170.5,108.5C 170.205,106.265 170.539,104.265 171.5,102.5 Z"/></g>
<g><path style="opacity:0.994" fill="#d4d8dc" d="M 240.5,105.5 C 241.5,105.5 242.5,105.5 243.5,105.5C 239.238,109.637 234.238,110.471 228.5,108C 227.944,107.617 227.611,107.117 227.5,106.5C 232.12,108.131 236.454,107.798 240.5,105.5 Z"/></g>
<g><path style="opacity:0.632" fill="#e4ece7" d="M 32.5,119.5 C 38.8333,119.5 45.1667,119.5 51.5,119.5C 51.5,120.833 51.5,122.167 51.5,123.5C 44.1591,123.666 36.8258,123.5 29.5,123C 26.5432,122.721 23.8766,121.887 21.5,120.5C 31.096,122.53 40.7627,122.863 50.5,121.5C 44.3465,120.833 38.3465,120.167 32.5,119.5 Z"/></g>
</svg>
